PathFileType	4	(X/Y/Z)	D:\TRACE\spot_10-12-23\spot_arm_body_motion_1_5-v60.trc
DataRate	CameraRate	NumFrames	NumMarkers	Units	OrigDataRate	OrigDataStartFrame	OrigNumFrames
100.00	100.00	      28	9	mm	100.00	1751	      7000
Frame#	Time	front left toe			Front right toe			aft left toe			aft right toe			Arm			FL body			FR body			AL Body			AR Body			
		X1	Y1	Z1	X2	Y2	Z2	X3	Y3	Z3	X4	Y4	Z4	X5	Y5	Z5	X6	Y6	Z6	X7	Y7	Z7	X8	Y8	Z8	X9	Y9	Z9	

1751	17.500	-195.32161	49.67533	-455.95810	242.59372	2.29618	-433.85617	-151.69731	22.56919	137.64041	246.40308	30.13261	163.72481	3.07552	745.93585	-751.81720	-67.16286	575.46155	-471.92487	86.20654	582.01294	-471.35635	-75.50034	562.84827	410.27496	66.24834	563.20111	413.80396	
1752	17.510	-197.94237	39.12253	-453.08731	243.16158	2.94984	-433.78510	-150.51894	22.75647	137.75859	247.34138	30.27415	163.54791	4.24803	746.24780	-751.67242	-68.92454	575.61035	-472.21042	86.04102	582.45837	-472.05032	-75.06750	563.03156	410.14276	66.93776	563.35889	413.70004	
1753	17.520	-199.97655	28.56912	-450.90543	243.32353	3.46802	-434.06870	-149.72818	22.65032	138.13394	247.96333	30.37934	163.36581	5.98371	746.53790	-751.34674	-70.60699	576.03137	-472.42834	83.77937	582.74011	-472.14810	-75.00166	563.48608	409.94351	67.24318	563.71289	413.23752	
1754	17.530	-201.52087	17.95479	-449.34448	243.56393	3.78554	-434.44705	-149.16992	23.11832	137.96945	248.00429	29.74224	163.11169	7.70971	746.67828	-751.35516	-72.28353	576.22772	-472.51639	81.09401	582.90698	-472.88184	-75.15775	563.70251	410.07904	66.76530	564.08124	412.16068	
1755	17.540	-202.71899	7.81071	-448.49875	244.15985	4.01185	-434.65347	-147.89539	23.07894	138.15201	248.88289	29.64056	163.14861	9.60110	746.44556	-751.43530	-73.93145	576.41449	-472.66534	79.96446	583.26208	-473.51489	-75.54319	563.99091	409.54156	66.22243	564.43927	411.88159	
1756	17.550	-202.58070	2.53127	-451.15607	245.05751	4.25492	-434.37329	-147.92494	22.99957	138.17946	249.94107	29.36386	163.17079	11.32431	746.16235	-751.42914	-75.11774	576.57312	-472.96912	78.71085	583.53479	-473.85388	-76.37881	564.20148	409.33676	65.60973	564.67365	411.86493	
1757	17.560	-203.13971	1.97072	-449.71014	245.85661	4.85969	-434.52454	-146.82022	22.34791	138.29802	251.61652	29.81974	163.23076	13.01679	746.03662	-751.53558	-76.06693	577.80646	-473.30612	77.47733	584.25574	-474.04791	-77.50269	564.05157	409.01010	64.49883	564.45673	411.64188	
1758	17.570	-203.36679	1.91791	-447.25943	245.66570	5.90259	-434.32901	-147.14934	21.11355	138.29651	251.53554	30.42952	162.25569	14.36008	746.08197	-751.48285	-77.08382	579.06329	-473.71240	77.65125	585.43359	-474.49054	-78.73405	563.80450	408.63657	63.01152	564.19513	410.98053	
1759	17.580	-202.20277	2.59984	-448.46265	245.95842	5.69874	-434.09543	-147.73764	20.27495	138.49599	251.13654	30.59945	162.41774	15.16088	746.38123	-751.36487	-77.61018	580.85083	-474.05447	75.94870	586.25366	-474.67255	-80.05233	563.92694	408.16141	62.07805	563.49786	411.12170	
1760	17.590	-200.88382	2.81742	-448.57813	246.28351	5.77800	-434.42102	-146.26729	20.07197	138.13748	251.30298	30.67049	162.69899	15.83481	746.75983	-751.25128	-77.63338	582.06006	-474.55963	76.12466	586.93829	-475.07797	-81.95154	564.12726	407.62259	59.79374	563.54980	410.16376	
1761	17.600	-200.15858	2.66680	-448.82593	246.98744	5.52271	-434.26450	-146.12254	20.22325	137.74223	251.59389	30.77953	162.84079	16.35681	747.16614	-751.29614	-77.35961	582.98132	-475.37665	76.63715	587.34082	-475.32043	-83.33724	565.10785	406.94193	58.32316	563.88141	409.81003	
1762	17.610	-198.98891	2.84720	-449.24783	247.91483	5.62026	-433.95779	-145.90680	20.05660	137.76982	252.88094	31.30275	163.31665	16.83176	747.28027	-751.40668	-76.69433	583.56531	-475.93292	76.96303	587.54462	-475.17221	-84.71140	565.51672	406.04001	57.08009	564.18427	409.65323	
1763	17.620	-197.80367	3.16315	-449.55872	249.07896	5.99499	-433.38394	-144.87286	20.03122	137.75888	252.93933	30.80949	163.15996	16.96259	747.40265	-751.56909	-76.11779	584.28284	-476.66742	78.77396	588.36487	-476.10941	-85.83026	566.03406	405.38602	55.63659	564.78229	409.12103	
1764	17.630	-197.11790	3.31711	-449.60648	249.68373	5.97532	-433.45245	-144.05589	19.96247	137.71198	254.28296	31.42678	163.58583	16.48052	747.72174	-751.86859	-75.51791	584.64948	-477.60968	78.16020	588.81665	-476.39478	-86.65070	566.42542	404.63153	55.05202	565.23755	408.77722	
1765	17.640	-196.44597	3.51440	-449.58920	250.12469	5.83749	-433.85526	-143.56026	20.01324	137.62389	254.92892	31.42883	163.55261	15.62295	747.84424	-752.17511	-74.75224	585.25543	-478.36676	78.96062	589.32355	-477.30954	-87.36745	566.87067	403.81085	54.61410	565.65186	407.80789	
1766	17.650	-195.58107	3.42855	-449.64923	251.17908	5.99137	-433.81378	-142.93987	19.94346	137.47934	255.63753	31.27396	163.43250	14.68269	747.87042	-752.45465	-74.27912	585.25134	-478.93393	79.22543	589.59894	-477.50601	-87.41911	567.47211	402.99619	54.37523	566.10406	407.18790	
1767	17.660	-194.89874	3.28860	-449.67734	252.16006	6.26813	-433.67880	-141.86259	19.98378	137.40181	256.29510	31.30499	163.36787	13.78213	747.80090	-752.59058	-74.22701	585.55524	-479.92255	79.41502	589.96069	-478.26511	-86.53980	567.81897	402.18201	54.69550	566.78687	406.57568	
1768	17.670	-194.48444	3.26858	-449.57199	252.74568	6.46937	-433.59625	-141.24319	20.21862	137.33530	256.89301	31.31429	163.31282	12.92864	747.78369	-752.76300	-74.18150	585.69501	-480.50937	80.72386	590.39435	-479.63779	-86.42117	568.15479	401.84726	55.55017	567.09802	405.76382	
1769	17.680	-194.09688	3.34930	-449.43134	252.90874	6.56143	-433.99084	-140.99182	20.78068	137.73923	257.81418	31.18268	163.20927	12.64690	747.81946	-753.21606	-74.26812	585.78870	-481.29303	79.42016	590.60046	-480.08282	-85.32027	568.75580	400.76389	56.56125	567.74475	404.66174	
1770	17.690	-193.85573	3.41206	-449.34772	253.03725	6.54043	-434.31009	-139.54767	20.31888	137.53084	258.14331	30.56635	162.84271	12.60600	747.70636	-753.64752	-74.61665	585.88776	-482.19049	79.13005	590.70996	-481.60153	-84.23212	568.97150	400.17584	57.77835	568.22589	403.55707	
1771	17.700	-193.65332	3.28097	-449.20380	253.53740	6.67972	-434.64133	-138.75844	20.26479	137.63947	258.71500	30.32144	162.41452	13.19837	747.43250	-754.00043	-74.99191	585.75470	-482.76328	78.69913	590.65906	-482.30746	-82.57880	569.09778	399.12274	59.16734	568.48505	402.75571	
1772	17.710	-193.34155	3.07953	-449.04050	254.32039	7.05098	-434.61514	-138.14081	20.35151	137.65109	260.18030	30.57106	162.50238	14.43475	747.05487	-754.17218	-75.25114	585.73065	-483.55484	78.63264	590.76093	-483.74564	-81.13271	569.25629	398.46500	60.98835	568.76794	402.01270	
1773	17.720	-192.80560	3.04564	-448.83939	254.95122	7.30600	-434.51245	-137.52881	20.36526	137.72855	261.06238	30.58372	162.46965	15.88198	746.89722	-754.37146	-75.50719	585.85107	-484.32449	78.45014	590.96436	-484.70169	-79.06812	570.12054	397.72943	61.96503	569.11505	400.63904	
1774	17.730	-192.30212	3.11617	-448.70621	255.45319	7.51602	-434.44739	-136.87004	20.43288	137.73065	261.60208	30.52974	162.47408	17.39693	746.86554	-754.66547	-75.35039	585.96985	-485.10815	78.20899	590.91583	-485.61075	-77.40506	569.80597	396.68320	63.58404	569.40588	399.59344	
1775	17.740	-191.77838	3.23420	-448.71780	255.79919	7.64967	-434.45660	-136.22104	20.50285	137.64951	262.20264	30.45651	162.38472	18.99721	746.83899	-754.94568	-74.99519	586.29010	-486.03540	79.91723	591.21643	-486.82123	-76.65832	570.91400	396.01483	64.71831	569.80969	399.01111	
1776	17.750	-191.21326	3.34001	-448.88779	255.79245	7.06171	-435.32935	-135.78700	20.52523	137.59700	262.67441	30.32703	162.40460	20.52612	746.82227	-754.97589	-73.90941	586.56000	-486.85922	79.21722	590.42145	-486.54117	-75.91652	571.27307	395.24017	65.18839	570.23846	397.71588	
1777	17.760	-190.66054	3.55235	-448.97800	256.52994	7.68725	-434.54431	-135.51843	20.41528	137.59253	263.19482	30.22841	162.39763	21.58317	746.86633	-754.97876	-73.15823	586.61407	-487.85223	80.65778	591.35413	-487.96652	-75.30166	571.40533	394.43414	65.90599	570.51636	397.05188	
1778	17.770	-189.94072	3.84977	-449.21292	257.16922	7.69343	-434.33389	-135.12273	20.39888	137.61661	263.53586	30.08458	162.48683	22.48003	746.97552	-755.09149	-71.72928	587.30914	-488.80713	81.78828	591.61908	-488.84601	-74.78661	571.80841	393.38058	66.36975	570.66602	396.21945	
